Coordinates
version=1
nRows=49
nColumns=12
inDegrees=yes

Units are S.I. units (second, meters, Newtons, ...)
Angles are in degrees

endheader
time	SC_y	SC_z	SC_x	AC_y	AC_z	AC_x	GH_y	GH_z	GH_yy	EL_x	PS_y
       0.0               -35.9          13.68          2.672          50.28        -0.8361          6.789         0.2659         -4.082         -24.72           7.01          151.0
   0.04007               -35.9          13.68           2.68          50.28        -0.8379          6.789         0.2881         -4.074         -24.71          7.028          151.0
   0.08014               -35.9          13.68          2.688          50.28        -0.8398          6.788         0.3116         -4.066         -24.69          7.046          151.0
    0.1202               -35.9          13.69          2.697          50.28        -0.8419          6.788         0.3366         -4.057         -24.67          7.066          151.0
    0.1603               -35.9          13.69          2.706          50.28        -0.8441          6.787         0.3632         -4.048         -24.65          7.087          151.0
    0.2003               -35.9          13.69          2.716          50.27        -0.8464          6.787         0.3916         -4.038         -24.63           7.11          151.0
    0.2404               -35.9           13.7          2.727          50.27        -0.8488          6.786         0.4219         -4.028         -24.61          7.133          151.0
    0.2805               -35.9           13.7          2.738          50.27        -0.8515          6.786         0.4543         -4.016         -24.59          7.159          151.0
    0.3205               -35.9           13.7           2.75          50.27        -0.8543          6.785          0.489         -4.004         -24.57          7.186          151.0
    0.3606               -35.9          13.71          2.764          50.27        -0.8574          6.785         0.5262         -3.991         -24.54          7.216          151.0
    0.4007               -35.9          13.71          2.778          50.26        -0.8606          6.784         0.5662         -3.977         -24.51          7.247          151.0
    0.4407               -35.9          13.72          2.793          50.26        -0.8641          6.783         0.6092         -3.963         -24.48          7.281          150.9
    0.4808               -35.9          13.72          2.809          50.26        -0.8679          6.783         0.6556         -3.946         -24.45          7.318          150.9
    0.5209               -35.9          13.73          2.826          50.26         -0.872          6.782         0.7057         -3.929         -24.41          7.357          150.9
    0.5609              -35.91          13.73          2.845          50.25        -0.8764          6.781         0.7599          -3.91         -24.38            7.4          150.9
     0.601              -35.91          13.74          2.866          50.25        -0.8812           6.78         0.8187          -3.89         -24.34          7.446          150.9
    0.6411              -35.91          13.75          2.888          50.25        -0.8865          6.779         0.8826         -3.868         -24.29          7.497          150.9
    0.6812              -35.91          13.75          2.913          50.24        -0.8921          6.778         0.9522         -3.844         -24.24          7.552          150.9
    0.7212              -35.91          13.76          2.939          50.24        -0.8983          6.777          1.028         -3.817         -24.19          7.612          150.9
    0.7613              -35.91          13.77          2.968          50.23        -0.9051          6.775          1.111         -3.788         -24.13          7.677          150.9
    0.8014              -35.91          13.78            3.0          50.23        -0.9126          6.774          1.203         -3.757         -24.07          7.749          150.8
    0.8414              -35.92          13.79          3.036          50.22        -0.9208          6.772          1.303         -3.722          -24.0          7.829          150.8
    0.8815              -35.92           13.8          3.074          50.22        -0.9299          6.771          1.415         -3.683         -23.92          7.916          150.8
    0.9216              -35.92          13.82          3.118          50.21        -0.9399          6.769          1.538         -3.641         -23.83          8.014          150.8
    0.9616              -35.92          13.83          3.165           50.2        -0.9511          6.767          1.674         -3.593         -23.74          8.121          150.8
     1.002              -35.93          13.85          3.219          50.19        -0.9636          6.764          1.827          -3.54         -23.63          8.242          150.7
     1.042              -35.93          13.87          3.279          50.18        -0.9775          6.761          1.998         -3.481         -23.51          8.377          150.7
     1.082              -35.93          13.89          3.346          50.17        -0.9932          6.758          2.191         -3.414         -23.37          8.529          150.7
     1.122              -35.94          13.91          3.422          50.16         -1.011          6.755          2.408         -3.339         -23.22            8.7          150.6
     1.162              -35.94          13.94          3.509          50.14         -1.031          6.751          2.655         -3.253         -23.05          8.895          150.6
     1.202              -35.95          13.97          3.607          50.13         -1.054          6.747          2.937         -3.156         -22.85          9.117          150.5
     1.242              -35.95           14.0           3.72          50.11         -1.081          6.741           3.26         -3.043         -22.62          9.372          150.5
     1.282              -35.96          14.04          3.851          50.09         -1.111          6.735          3.633         -2.914         -22.36          9.667          150.4
     1.322              -35.97          14.09          4.003          50.06         -1.146          6.729          4.067         -2.764         -22.06          10.01          150.4
     1.362              -35.98          14.14          4.181          50.04         -1.188          6.721          4.575         -2.588          -21.7          10.41          150.3
     1.402              -35.99          14.21           4.39           50.0         -1.237          6.711          5.173          -2.38         -21.28          10.88          150.2
     1.442               -36.0          14.28          4.639          49.96         -1.295            6.7          5.884         -2.134         -20.79          11.44          150.0
     1.483              -36.02          14.37          4.937          49.91         -1.364          6.686          6.736         -1.838         -20.19          12.11          149.9
     1.523              -36.04          14.49          5.298          49.85         -1.448           6.67          7.767         -1.481         -19.47          12.93          149.7
     1.563              -36.06          14.62          5.739          49.78         -1.551           6.65          9.027         -1.044         -18.58          13.92          149.5
     1.603              -36.09          14.79          6.283          49.69         -1.678          6.625          10.58        -0.5047         -17.49          15.15          149.2
     1.643              -36.12           15.0          6.962          49.58         -1.836          6.595          12.52         0.1675         -16.14          16.68          148.9
     1.683              -36.17          15.26          7.817          49.44         -2.036          6.556          14.96          1.014         -14.42           18.6          148.5
     1.723              -36.23          15.59          8.903          49.26         -2.289          6.507          18.07          2.091         -12.25          21.05          148.0
     1.763               -36.3          16.02          10.29          49.04         -2.614          6.444          22.04          3.468         -9.465          24.19          147.3
     1.803               -36.4          16.57          12.08          48.75          -3.03          6.363          27.14          5.237         -5.892          28.21          146.4
     1.843              -36.52          17.27          14.36          48.37         -3.562           6.26          33.65          7.495         -1.327          33.35          145.3
     1.883              -36.67          18.15          17.23           47.9          -4.23           6.13          41.84          10.33          4.411          39.81          143.9
     1.923              -36.86          19.22          20.72          47.33         -5.045          5.972          51.82           13.8          11.41          47.68          142.2
